<mxfile host="app.diagrams.net" modified="2023-02-23T09:40:39.893Z" agent="5.0 (Windows NT 10.0; Win64; x64) AppleWebKit/537.36 (KHTML, like Gecko) Chrome/110.0.0.0 Safari/537.36" etag="Q6WAhJl-5nFgMN_PxRiw" version="20.8.22" type="github">
  <diagram name="Page-1" id="qvWM1OvtlhQg1NueCVtJ">
    <mxGraphModel dx="1572" dy="723" grid="1" gridSize="10" guides="1" tooltips="1" connect="1" arrows="1" fold="1" page="1" pageScale="1" pageWidth="850" pageHeight="1100" math="0" shadow="0">
      <root>
        <mxCell id="0" />
        <mxCell id="1" parent="0" />
        <mxCell id="56UlqeOueoB-I-3EqVoc-29" value="" style="shape=table;startSize=0;container=1;collapsible=0;childLayout=tableLayout;" parent="1" vertex="1">
          <mxGeometry width="520" height="483" as="geometry" />
        </mxCell>
        <mxCell id="56UlqeOueoB-I-3EqVoc-30" value="" style="shape=tableRow;horizontal=0;startSize=0;swimlaneHead=0;swimlaneBody=0;strokeColor=inherit;top=0;left=0;bottom=0;right=0;collapsible=0;dropTarget=0;fillColor=none;points=[[0,0.5],[1,0.5]];portConstraint=eastwest;" parent="56UlqeOueoB-I-3EqVoc-29" vertex="1">
          <mxGeometry width="520" height="50" as="geometry" />
        </mxCell>
        <mxCell id="56UlqeOueoB-I-3EqVoc-31" value="User" style="shape=partialRectangle;html=1;whiteSpace=wrap;connectable=0;strokeColor=inherit;overflow=hidden;fillColor=none;top=0;left=0;bottom=0;right=0;pointerEvents=1;" parent="56UlqeOueoB-I-3EqVoc-30" vertex="1">
          <mxGeometry width="178" height="50" as="geometry">
            <mxRectangle width="178" height="50" as="alternateBounds" />
          </mxGeometry>
        </mxCell>
        <mxCell id="56UlqeOueoB-I-3EqVoc-32" value="Sistem" style="shape=partialRectangle;html=1;whiteSpace=wrap;connectable=0;strokeColor=inherit;overflow=hidden;fillColor=none;top=0;left=0;bottom=0;right=0;pointerEvents=1;" parent="56UlqeOueoB-I-3EqVoc-30" vertex="1">
          <mxGeometry x="178" width="174" height="50" as="geometry">
            <mxRectangle width="174" height="50" as="alternateBounds" />
          </mxGeometry>
        </mxCell>
        <mxCell id="56UlqeOueoB-I-3EqVoc-33" value="Admin" style="shape=partialRectangle;html=1;whiteSpace=wrap;connectable=0;strokeColor=inherit;overflow=hidden;fillColor=none;top=0;left=0;bottom=0;right=0;pointerEvents=1;" parent="56UlqeOueoB-I-3EqVoc-30" vertex="1">
          <mxGeometry x="352" width="168" height="50" as="geometry">
            <mxRectangle width="168" height="50" as="alternateBounds" />
          </mxGeometry>
        </mxCell>
        <mxCell id="56UlqeOueoB-I-3EqVoc-34" value="" style="shape=tableRow;horizontal=0;startSize=0;swimlaneHead=0;swimlaneBody=0;strokeColor=inherit;top=0;left=0;bottom=0;right=0;collapsible=0;dropTarget=0;fillColor=none;points=[[0,0.5],[1,0.5]];portConstraint=eastwest;" parent="56UlqeOueoB-I-3EqVoc-29" vertex="1">
          <mxGeometry y="50" width="520" height="433" as="geometry" />
        </mxCell>
        <mxCell id="56UlqeOueoB-I-3EqVoc-35" value="" style="shape=partialRectangle;html=1;whiteSpace=wrap;connectable=0;strokeColor=inherit;overflow=hidden;fillColor=none;top=0;left=0;bottom=0;right=0;pointerEvents=1;" parent="56UlqeOueoB-I-3EqVoc-34" vertex="1">
          <mxGeometry width="178" height="433" as="geometry">
            <mxRectangle width="178" height="433" as="alternateBounds" />
          </mxGeometry>
        </mxCell>
        <mxCell id="56UlqeOueoB-I-3EqVoc-36" value="" style="shape=partialRectangle;html=1;whiteSpace=wrap;connectable=0;strokeColor=inherit;overflow=hidden;fillColor=none;top=0;left=0;bottom=0;right=0;pointerEvents=1;" parent="56UlqeOueoB-I-3EqVoc-34" vertex="1">
          <mxGeometry x="178" width="174" height="433" as="geometry">
            <mxRectangle width="174" height="433" as="alternateBounds" />
          </mxGeometry>
        </mxCell>
        <mxCell id="56UlqeOueoB-I-3EqVoc-37" value="" style="shape=partialRectangle;html=1;whiteSpace=wrap;connectable=0;strokeColor=inherit;overflow=hidden;fillColor=none;top=0;left=0;bottom=0;right=0;pointerEvents=1;" parent="56UlqeOueoB-I-3EqVoc-34" vertex="1">
          <mxGeometry x="352" width="168" height="433" as="geometry">
            <mxRectangle width="168" height="433" as="alternateBounds" />
          </mxGeometry>
        </mxCell>
        <mxCell id="56UlqeOueoB-I-3EqVoc-42" style="edgeStyle=orthogonalEdgeStyle;rounded=0;orthogonalLoop=1;jettySize=auto;html=1;exitX=0.5;exitY=1;exitDx=0;exitDy=0;entryX=0.5;entryY=0;entryDx=0;entryDy=0;" parent="1" source="56UlqeOueoB-I-3EqVoc-38" target="56UlqeOueoB-I-3EqVoc-41" edge="1">
          <mxGeometry relative="1" as="geometry" />
        </mxCell>
        <mxCell id="56UlqeOueoB-I-3EqVoc-38" value="" style="ellipse;fillColor=strokeColor;" parent="1" vertex="1">
          <mxGeometry x="60" y="80" width="30" height="30" as="geometry" />
        </mxCell>
        <mxCell id="56UlqeOueoB-I-3EqVoc-47" style="edgeStyle=orthogonalEdgeStyle;rounded=0;orthogonalLoop=1;jettySize=auto;html=1;exitX=1;exitY=0.5;exitDx=0;exitDy=0;entryX=0;entryY=0.5;entryDx=0;entryDy=0;" parent="1" source="56UlqeOueoB-I-3EqVoc-41" target="56UlqeOueoB-I-3EqVoc-46" edge="1">
          <mxGeometry relative="1" as="geometry" />
        </mxCell>
        <mxCell id="56UlqeOueoB-I-3EqVoc-41" value="Registrasi User" style="rounded=1;whiteSpace=wrap;html=1;" parent="1" vertex="1">
          <mxGeometry x="10" y="140" width="130" height="40" as="geometry" />
        </mxCell>
        <mxCell id="56UlqeOueoB-I-3EqVoc-49" style="edgeStyle=orthogonalEdgeStyle;rounded=0;orthogonalLoop=1;jettySize=auto;html=1;exitX=1;exitY=0.5;exitDx=0;exitDy=0;entryX=0;entryY=0.5;entryDx=0;entryDy=0;" parent="1" source="56UlqeOueoB-I-3EqVoc-46" target="56UlqeOueoB-I-3EqVoc-48" edge="1">
          <mxGeometry relative="1" as="geometry" />
        </mxCell>
        <mxCell id="56UlqeOueoB-I-3EqVoc-46" value="Request User" style="rounded=1;whiteSpace=wrap;html=1;" parent="1" vertex="1">
          <mxGeometry x="190" y="140" width="130" height="40" as="geometry" />
        </mxCell>
        <mxCell id="56UlqeOueoB-I-3EqVoc-51" style="edgeStyle=orthogonalEdgeStyle;rounded=0;orthogonalLoop=1;jettySize=auto;html=1;exitX=0.5;exitY=1;exitDx=0;exitDy=0;entryX=1;entryY=0.5;entryDx=0;entryDy=0;" parent="1" source="56UlqeOueoB-I-3EqVoc-48" target="56UlqeOueoB-I-3EqVoc-50" edge="1">
          <mxGeometry relative="1" as="geometry" />
        </mxCell>
        <mxCell id="56UlqeOueoB-I-3EqVoc-48" value="Eksekusi" style="rounded=1;whiteSpace=wrap;html=1;" parent="1" vertex="1">
          <mxGeometry x="380" y="140" width="130" height="40" as="geometry" />
        </mxCell>
        <mxCell id="56UlqeOueoB-I-3EqVoc-52" style="edgeStyle=orthogonalEdgeStyle;rounded=0;orthogonalLoop=1;jettySize=auto;html=1;exitX=0;exitY=0.5;exitDx=0;exitDy=0;entryX=0.5;entryY=1;entryDx=0;entryDy=0;" parent="1" source="56UlqeOueoB-I-3EqVoc-50" target="56UlqeOueoB-I-3EqVoc-41" edge="1">
          <mxGeometry relative="1" as="geometry" />
        </mxCell>
        <mxCell id="56UlqeOueoB-I-3EqVoc-54" style="edgeStyle=orthogonalEdgeStyle;rounded=0;orthogonalLoop=1;jettySize=auto;html=1;exitX=0.5;exitY=1;exitDx=0;exitDy=0;entryX=0.5;entryY=0;entryDx=0;entryDy=0;" parent="1" source="56UlqeOueoB-I-3EqVoc-50" target="56UlqeOueoB-I-3EqVoc-57" edge="1">
          <mxGeometry relative="1" as="geometry">
            <mxPoint x="255" y="350" as="targetPoint" />
          </mxGeometry>
        </mxCell>
        <mxCell id="56UlqeOueoB-I-3EqVoc-50" value="" style="rhombus;whiteSpace=wrap;html=1;" parent="1" vertex="1">
          <mxGeometry x="215" y="210" width="80" height="80" as="geometry" />
        </mxCell>
        <mxCell id="56UlqeOueoB-I-3EqVoc-55" value="Ya" style="text;html=1;strokeColor=none;fillColor=none;align=center;verticalAlign=middle;whiteSpace=wrap;rounded=0;" parent="1" vertex="1">
          <mxGeometry x="240" y="300" width="60" height="30" as="geometry" />
        </mxCell>
        <mxCell id="56UlqeOueoB-I-3EqVoc-56" value="Tidak" style="text;html=1;strokeColor=none;fillColor=none;align=center;verticalAlign=middle;whiteSpace=wrap;rounded=0;" parent="1" vertex="1">
          <mxGeometry x="110" y="250" width="60" height="30" as="geometry" />
        </mxCell>
        <mxCell id="56UlqeOueoB-I-3EqVoc-59" style="edgeStyle=orthogonalEdgeStyle;rounded=0;orthogonalLoop=1;jettySize=auto;html=1;exitX=0.5;exitY=1;exitDx=0;exitDy=0;entryX=0.5;entryY=0;entryDx=0;entryDy=0;" parent="1" source="56UlqeOueoB-I-3EqVoc-57" target="56UlqeOueoB-I-3EqVoc-58" edge="1">
          <mxGeometry relative="1" as="geometry" />
        </mxCell>
        <mxCell id="56UlqeOueoB-I-3EqVoc-57" value="LoginPage" style="rounded=1;whiteSpace=wrap;html=1;" parent="1" vertex="1">
          <mxGeometry x="190" y="340" width="130" height="40" as="geometry" />
        </mxCell>
        <mxCell id="56UlqeOueoB-I-3EqVoc-58" value="" style="ellipse;html=1;shape=endState;fillColor=strokeColor;" parent="1" vertex="1">
          <mxGeometry x="240" y="420" width="30" height="30" as="geometry" />
        </mxCell>
        <mxCell id="uEY4NltsGnFyYY0y2aG_-11" value="" style="shape=table;startSize=0;container=1;collapsible=0;childLayout=tableLayout;" parent="1" vertex="1">
          <mxGeometry y="530" width="510" height="520" as="geometry" />
        </mxCell>
        <mxCell id="uEY4NltsGnFyYY0y2aG_-12" value="" style="shape=tableRow;horizontal=0;startSize=0;swimlaneHead=0;swimlaneBody=0;strokeColor=inherit;top=0;left=0;bottom=0;right=0;collapsible=0;dropTarget=0;fillColor=none;points=[[0,0.5],[1,0.5]];portConstraint=eastwest;" parent="uEY4NltsGnFyYY0y2aG_-11" vertex="1">
          <mxGeometry width="510" height="55" as="geometry" />
        </mxCell>
        <mxCell id="uEY4NltsGnFyYY0y2aG_-13" value="User" style="shape=partialRectangle;html=1;whiteSpace=wrap;connectable=0;strokeColor=inherit;overflow=hidden;fillColor=none;top=0;left=0;bottom=0;right=0;pointerEvents=1;" parent="uEY4NltsGnFyYY0y2aG_-12" vertex="1">
          <mxGeometry width="255" height="55" as="geometry">
            <mxRectangle width="255" height="55" as="alternateBounds" />
          </mxGeometry>
        </mxCell>
        <mxCell id="uEY4NltsGnFyYY0y2aG_-14" value="Sistem" style="shape=partialRectangle;html=1;whiteSpace=wrap;connectable=0;strokeColor=inherit;overflow=hidden;fillColor=none;top=0;left=0;bottom=0;right=0;pointerEvents=1;" parent="uEY4NltsGnFyYY0y2aG_-12" vertex="1">
          <mxGeometry x="255" width="255" height="55" as="geometry">
            <mxRectangle width="255" height="55" as="alternateBounds" />
          </mxGeometry>
        </mxCell>
        <mxCell id="uEY4NltsGnFyYY0y2aG_-15" value="" style="shape=tableRow;horizontal=0;startSize=0;swimlaneHead=0;swimlaneBody=0;strokeColor=inherit;top=0;left=0;bottom=0;right=0;collapsible=0;dropTarget=0;fillColor=none;points=[[0,0.5],[1,0.5]];portConstraint=eastwest;" parent="uEY4NltsGnFyYY0y2aG_-11" vertex="1">
          <mxGeometry y="55" width="510" height="465" as="geometry" />
        </mxCell>
        <mxCell id="uEY4NltsGnFyYY0y2aG_-16" value="" style="shape=partialRectangle;html=1;whiteSpace=wrap;connectable=0;strokeColor=inherit;overflow=hidden;fillColor=none;top=0;left=0;bottom=0;right=0;pointerEvents=1;" parent="uEY4NltsGnFyYY0y2aG_-15" vertex="1">
          <mxGeometry width="255" height="465" as="geometry">
            <mxRectangle width="255" height="465" as="alternateBounds" />
          </mxGeometry>
        </mxCell>
        <mxCell id="uEY4NltsGnFyYY0y2aG_-17" value="" style="shape=partialRectangle;html=1;whiteSpace=wrap;connectable=0;strokeColor=inherit;overflow=hidden;fillColor=none;top=0;left=0;bottom=0;right=0;pointerEvents=1;" parent="uEY4NltsGnFyYY0y2aG_-15" vertex="1">
          <mxGeometry x="255" width="255" height="465" as="geometry">
            <mxRectangle width="255" height="465" as="alternateBounds" />
          </mxGeometry>
        </mxCell>
        <mxCell id="uEY4NltsGnFyYY0y2aG_-20" style="edgeStyle=orthogonalEdgeStyle;rounded=0;orthogonalLoop=1;jettySize=auto;html=1;exitX=0.5;exitY=1;exitDx=0;exitDy=0;entryX=0.5;entryY=0;entryDx=0;entryDy=0;" parent="1" source="uEY4NltsGnFyYY0y2aG_-18" target="uEY4NltsGnFyYY0y2aG_-19" edge="1">
          <mxGeometry relative="1" as="geometry" />
        </mxCell>
        <mxCell id="uEY4NltsGnFyYY0y2aG_-18" value="" style="ellipse;fillColor=strokeColor;" parent="1" vertex="1">
          <mxGeometry x="110" y="620" width="30" height="30" as="geometry" />
        </mxCell>
        <mxCell id="uEY4NltsGnFyYY0y2aG_-19" value="Input Username dan Password" style="rounded=1;whiteSpace=wrap;html=1;" parent="1" vertex="1">
          <mxGeometry x="60" y="680" width="130" height="40" as="geometry" />
        </mxCell>
        <mxCell id="uEY4NltsGnFyYY0y2aG_-24" style="edgeStyle=orthogonalEdgeStyle;rounded=0;orthogonalLoop=1;jettySize=auto;html=1;exitX=1;exitY=0.5;exitDx=0;exitDy=0;" parent="1" source="uEY4NltsGnFyYY0y2aG_-19" target="uEY4NltsGnFyYY0y2aG_-23" edge="1">
          <mxGeometry relative="1" as="geometry">
            <mxPoint x="190" y="780" as="sourcePoint" />
          </mxGeometry>
        </mxCell>
        <mxCell id="uEY4NltsGnFyYY0y2aG_-26" style="edgeStyle=orthogonalEdgeStyle;rounded=0;orthogonalLoop=1;jettySize=auto;html=1;exitX=0.5;exitY=1;exitDx=0;exitDy=0;" parent="1" source="uEY4NltsGnFyYY0y2aG_-23" target="uEY4NltsGnFyYY0y2aG_-25" edge="1">
          <mxGeometry relative="1" as="geometry" />
        </mxCell>
        <mxCell id="uEY4NltsGnFyYY0y2aG_-23" value="Validasi Login" style="rounded=1;whiteSpace=wrap;html=1;" parent="1" vertex="1">
          <mxGeometry x="330" y="680" width="130" height="40" as="geometry" />
        </mxCell>
        <mxCell id="uEY4NltsGnFyYY0y2aG_-27" style="edgeStyle=orthogonalEdgeStyle;rounded=0;orthogonalLoop=1;jettySize=auto;html=1;exitX=0;exitY=0.5;exitDx=0;exitDy=0;entryX=0.5;entryY=1;entryDx=0;entryDy=0;" parent="1" source="uEY4NltsGnFyYY0y2aG_-25" target="uEY4NltsGnFyYY0y2aG_-19" edge="1">
          <mxGeometry relative="1" as="geometry" />
        </mxCell>
        <mxCell id="uEY4NltsGnFyYY0y2aG_-29" style="edgeStyle=orthogonalEdgeStyle;rounded=0;orthogonalLoop=1;jettySize=auto;html=1;exitX=0.5;exitY=1;exitDx=0;exitDy=0;entryX=0.5;entryY=0;entryDx=0;entryDy=0;" parent="1" source="uEY4NltsGnFyYY0y2aG_-25" target="uEY4NltsGnFyYY0y2aG_-28" edge="1">
          <mxGeometry relative="1" as="geometry" />
        </mxCell>
        <mxCell id="uEY4NltsGnFyYY0y2aG_-25" value="" style="rhombus;whiteSpace=wrap;html=1;" parent="1" vertex="1">
          <mxGeometry x="355" y="780" width="80" height="80" as="geometry" />
        </mxCell>
        <mxCell id="hxMTRhEPYF77uvNA8j2I-38" style="edgeStyle=orthogonalEdgeStyle;rounded=0;orthogonalLoop=1;jettySize=auto;html=1;entryX=0.5;entryY=0;entryDx=0;entryDy=0;" edge="1" parent="1" source="uEY4NltsGnFyYY0y2aG_-28" target="hxMTRhEPYF77uvNA8j2I-37">
          <mxGeometry relative="1" as="geometry" />
        </mxCell>
        <mxCell id="uEY4NltsGnFyYY0y2aG_-28" value="Menampilkan Halaman User" style="rounded=1;whiteSpace=wrap;html=1;" parent="1" vertex="1">
          <mxGeometry x="330" y="920" width="130" height="40" as="geometry" />
        </mxCell>
        <mxCell id="uEY4NltsGnFyYY0y2aG_-30" value="Tidak" style="text;html=1;strokeColor=none;fillColor=none;align=center;verticalAlign=middle;whiteSpace=wrap;rounded=0;" parent="1" vertex="1">
          <mxGeometry x="200" y="820" width="60" height="30" as="geometry" />
        </mxCell>
        <mxCell id="uEY4NltsGnFyYY0y2aG_-31" value="Ya" style="text;html=1;strokeColor=none;fillColor=none;align=center;verticalAlign=middle;whiteSpace=wrap;rounded=0;" parent="1" vertex="1">
          <mxGeometry x="380" y="870" width="60" height="30" as="geometry" />
        </mxCell>
        <mxCell id="hxMTRhEPYF77uvNA8j2I-2" value="" style="shape=table;startSize=0;container=1;collapsible=0;childLayout=tableLayout;shadow=0;" vertex="1" parent="1">
          <mxGeometry x="5" y="1130" width="765" height="690" as="geometry" />
        </mxCell>
        <mxCell id="hxMTRhEPYF77uvNA8j2I-3" value="" style="shape=tableRow;horizontal=0;startSize=0;swimlaneHead=0;swimlaneBody=0;strokeColor=inherit;top=0;left=0;bottom=0;right=0;collapsible=0;dropTarget=0;fillColor=none;points=[[0,0.5],[1,0.5]];portConstraint=eastwest;shadow=0;" vertex="1" parent="hxMTRhEPYF77uvNA8j2I-2">
          <mxGeometry width="765" height="74" as="geometry" />
        </mxCell>
        <mxCell id="hxMTRhEPYF77uvNA8j2I-4" value="User" style="shape=partialRectangle;html=1;whiteSpace=wrap;connectable=0;strokeColor=inherit;overflow=hidden;fillColor=none;top=0;left=0;bottom=0;right=0;pointerEvents=1;shadow=0;" vertex="1" parent="hxMTRhEPYF77uvNA8j2I-3">
          <mxGeometry width="255" height="74" as="geometry">
            <mxRectangle width="255" height="74" as="alternateBounds" />
          </mxGeometry>
        </mxCell>
        <mxCell id="hxMTRhEPYF77uvNA8j2I-5" value="Sistem" style="shape=partialRectangle;html=1;whiteSpace=wrap;connectable=0;strokeColor=inherit;overflow=hidden;fillColor=none;top=0;left=0;bottom=0;right=0;pointerEvents=1;shadow=0;" vertex="1" parent="hxMTRhEPYF77uvNA8j2I-3">
          <mxGeometry x="255" width="255" height="74" as="geometry">
            <mxRectangle width="255" height="74" as="alternateBounds" />
          </mxGeometry>
        </mxCell>
        <mxCell id="hxMTRhEPYF77uvNA8j2I-12" value="Database" style="shape=partialRectangle;html=1;whiteSpace=wrap;connectable=0;strokeColor=inherit;overflow=hidden;fillColor=none;top=0;left=0;bottom=0;right=0;pointerEvents=1;shadow=0;" vertex="1" parent="hxMTRhEPYF77uvNA8j2I-3">
          <mxGeometry x="510" width="255" height="74" as="geometry">
            <mxRectangle width="255" height="74" as="alternateBounds" />
          </mxGeometry>
        </mxCell>
        <mxCell id="hxMTRhEPYF77uvNA8j2I-6" value="" style="shape=tableRow;horizontal=0;startSize=0;swimlaneHead=0;swimlaneBody=0;strokeColor=inherit;top=0;left=0;bottom=0;right=0;collapsible=0;dropTarget=0;fillColor=none;points=[[0,0.5],[1,0.5]];portConstraint=eastwest;shadow=0;" vertex="1" parent="hxMTRhEPYF77uvNA8j2I-2">
          <mxGeometry y="74" width="765" height="616" as="geometry" />
        </mxCell>
        <mxCell id="hxMTRhEPYF77uvNA8j2I-7" value="" style="shape=partialRectangle;html=1;whiteSpace=wrap;connectable=0;strokeColor=inherit;overflow=hidden;fillColor=none;top=0;left=0;bottom=0;right=0;pointerEvents=1;shadow=0;" vertex="1" parent="hxMTRhEPYF77uvNA8j2I-6">
          <mxGeometry width="255" height="616" as="geometry">
            <mxRectangle width="255" height="616" as="alternateBounds" />
          </mxGeometry>
        </mxCell>
        <mxCell id="hxMTRhEPYF77uvNA8j2I-8" value="" style="shape=partialRectangle;html=1;whiteSpace=wrap;connectable=0;strokeColor=inherit;overflow=hidden;fillColor=none;top=0;left=0;bottom=0;right=0;pointerEvents=1;shadow=0;" vertex="1" parent="hxMTRhEPYF77uvNA8j2I-6">
          <mxGeometry x="255" width="255" height="616" as="geometry">
            <mxRectangle width="255" height="616" as="alternateBounds" />
          </mxGeometry>
        </mxCell>
        <mxCell id="hxMTRhEPYF77uvNA8j2I-13" style="shape=partialRectangle;html=1;whiteSpace=wrap;connectable=0;strokeColor=inherit;overflow=hidden;fillColor=none;top=0;left=0;bottom=0;right=0;pointerEvents=1;shadow=0;" vertex="1" parent="hxMTRhEPYF77uvNA8j2I-6">
          <mxGeometry x="510" width="255" height="616" as="geometry">
            <mxRectangle width="255" height="616" as="alternateBounds" />
          </mxGeometry>
        </mxCell>
        <mxCell id="hxMTRhEPYF77uvNA8j2I-11" style="edgeStyle=orthogonalEdgeStyle;rounded=0;orthogonalLoop=1;jettySize=auto;html=1;exitX=0.5;exitY=1;exitDx=0;exitDy=0;entryX=0.5;entryY=0;entryDx=0;entryDy=0;shadow=0;" edge="1" parent="1" source="hxMTRhEPYF77uvNA8j2I-9" target="hxMTRhEPYF77uvNA8j2I-10">
          <mxGeometry relative="1" as="geometry" />
        </mxCell>
        <mxCell id="hxMTRhEPYF77uvNA8j2I-9" value="" style="ellipse;fillColor=strokeColor;shadow=0;" vertex="1" parent="1">
          <mxGeometry x="110" y="1230" width="30" height="30" as="geometry" />
        </mxCell>
        <mxCell id="hxMTRhEPYF77uvNA8j2I-15" style="edgeStyle=orthogonalEdgeStyle;rounded=0;orthogonalLoop=1;jettySize=auto;html=1;exitX=1;exitY=0.5;exitDx=0;exitDy=0;shadow=0;" edge="1" parent="1" source="hxMTRhEPYF77uvNA8j2I-10" target="hxMTRhEPYF77uvNA8j2I-14">
          <mxGeometry relative="1" as="geometry" />
        </mxCell>
        <mxCell id="hxMTRhEPYF77uvNA8j2I-10" value="Login User" style="rounded=1;whiteSpace=wrap;html=1;shadow=0;" vertex="1" parent="1">
          <mxGeometry x="60" y="1290" width="130" height="40" as="geometry" />
        </mxCell>
        <mxCell id="hxMTRhEPYF77uvNA8j2I-17" style="edgeStyle=orthogonalEdgeStyle;rounded=0;orthogonalLoop=1;jettySize=auto;html=1;entryX=0;entryY=0.5;entryDx=0;entryDy=0;shadow=0;" edge="1" parent="1" source="hxMTRhEPYF77uvNA8j2I-14" target="hxMTRhEPYF77uvNA8j2I-16">
          <mxGeometry relative="1" as="geometry" />
        </mxCell>
        <mxCell id="hxMTRhEPYF77uvNA8j2I-14" value="Request" style="rounded=1;whiteSpace=wrap;html=1;shadow=0;" vertex="1" parent="1">
          <mxGeometry x="322.5" y="1290" width="130" height="40" as="geometry" />
        </mxCell>
        <mxCell id="hxMTRhEPYF77uvNA8j2I-19" style="edgeStyle=orthogonalEdgeStyle;rounded=0;orthogonalLoop=1;jettySize=auto;html=1;entryX=1;entryY=0.5;entryDx=0;entryDy=0;shadow=0;" edge="1" parent="1" source="hxMTRhEPYF77uvNA8j2I-16" target="hxMTRhEPYF77uvNA8j2I-18">
          <mxGeometry relative="1" as="geometry">
            <Array as="points">
              <mxPoint x="645" y="1390" />
            </Array>
          </mxGeometry>
        </mxCell>
        <mxCell id="hxMTRhEPYF77uvNA8j2I-16" value="Eksekusi" style="rounded=1;whiteSpace=wrap;html=1;shadow=0;" vertex="1" parent="1">
          <mxGeometry x="580" y="1290" width="130" height="40" as="geometry" />
        </mxCell>
        <mxCell id="hxMTRhEPYF77uvNA8j2I-21" style="edgeStyle=orthogonalEdgeStyle;rounded=0;orthogonalLoop=1;jettySize=auto;html=1;exitX=0;exitY=0.5;exitDx=0;exitDy=0;entryX=1;entryY=0.5;entryDx=0;entryDy=0;shadow=0;" edge="1" parent="1" source="hxMTRhEPYF77uvNA8j2I-18" target="hxMTRhEPYF77uvNA8j2I-20">
          <mxGeometry relative="1" as="geometry" />
        </mxCell>
        <mxCell id="hxMTRhEPYF77uvNA8j2I-18" value="Menampilkan Halaman User" style="rounded=1;whiteSpace=wrap;html=1;shadow=0;" vertex="1" parent="1">
          <mxGeometry x="322.5" y="1370" width="130" height="40" as="geometry" />
        </mxCell>
        <mxCell id="hxMTRhEPYF77uvNA8j2I-23" style="edgeStyle=orthogonalEdgeStyle;rounded=0;orthogonalLoop=1;jettySize=auto;html=1;entryX=0;entryY=0.5;entryDx=0;entryDy=0;shadow=0;" edge="1" parent="1" source="hxMTRhEPYF77uvNA8j2I-20" target="hxMTRhEPYF77uvNA8j2I-22">
          <mxGeometry relative="1" as="geometry">
            <Array as="points">
              <mxPoint x="125" y="1460" />
            </Array>
          </mxGeometry>
        </mxCell>
        <mxCell id="hxMTRhEPYF77uvNA8j2I-20" value="Memilih Menu catatan" style="rounded=1;whiteSpace=wrap;html=1;shadow=0;" vertex="1" parent="1">
          <mxGeometry x="60" y="1370" width="130" height="40" as="geometry" />
        </mxCell>
        <mxCell id="hxMTRhEPYF77uvNA8j2I-25" style="edgeStyle=orthogonalEdgeStyle;rounded=0;orthogonalLoop=1;jettySize=auto;html=1;exitX=0.5;exitY=1;exitDx=0;exitDy=0;entryX=1;entryY=0.5;entryDx=0;entryDy=0;shadow=0;" edge="1" parent="1" source="hxMTRhEPYF77uvNA8j2I-22" target="hxMTRhEPYF77uvNA8j2I-24">
          <mxGeometry relative="1" as="geometry" />
        </mxCell>
        <mxCell id="hxMTRhEPYF77uvNA8j2I-22" value="Menampilkan Menu catatan" style="rounded=1;whiteSpace=wrap;html=1;shadow=0;" vertex="1" parent="1">
          <mxGeometry x="322.5" y="1440" width="130" height="40" as="geometry" />
        </mxCell>
        <mxCell id="hxMTRhEPYF77uvNA8j2I-27" style="edgeStyle=orthogonalEdgeStyle;rounded=0;orthogonalLoop=1;jettySize=auto;html=1;entryX=0;entryY=0.5;entryDx=0;entryDy=0;shadow=0;" edge="1" parent="1" source="hxMTRhEPYF77uvNA8j2I-24" target="hxMTRhEPYF77uvNA8j2I-28">
          <mxGeometry relative="1" as="geometry">
            <Array as="points">
              <mxPoint x="130" y="1570" />
            </Array>
          </mxGeometry>
        </mxCell>
        <mxCell id="hxMTRhEPYF77uvNA8j2I-24" value="Mengisi Form" style="rounded=1;whiteSpace=wrap;html=1;shadow=0;" vertex="1" parent="1">
          <mxGeometry x="60" y="1500" width="130" height="40" as="geometry" />
        </mxCell>
        <mxCell id="hxMTRhEPYF77uvNA8j2I-30" style="edgeStyle=orthogonalEdgeStyle;rounded=0;orthogonalLoop=1;jettySize=auto;html=1;shadow=0;" edge="1" parent="1" source="hxMTRhEPYF77uvNA8j2I-26">
          <mxGeometry relative="1" as="geometry">
            <mxPoint x="290" y="1460" as="targetPoint" />
          </mxGeometry>
        </mxCell>
        <mxCell id="hxMTRhEPYF77uvNA8j2I-32" style="edgeStyle=orthogonalEdgeStyle;rounded=0;orthogonalLoop=1;jettySize=auto;html=1;shadow=0;" edge="1" parent="1" source="hxMTRhEPYF77uvNA8j2I-26" target="hxMTRhEPYF77uvNA8j2I-31">
          <mxGeometry relative="1" as="geometry" />
        </mxCell>
        <mxCell id="hxMTRhEPYF77uvNA8j2I-26" value="" style="rhombus;whiteSpace=wrap;html=1;shadow=0;" vertex="1" parent="1">
          <mxGeometry x="347.5" y="1630" width="80" height="80" as="geometry" />
        </mxCell>
        <mxCell id="hxMTRhEPYF77uvNA8j2I-29" style="edgeStyle=orthogonalEdgeStyle;rounded=0;orthogonalLoop=1;jettySize=auto;html=1;shadow=0;" edge="1" parent="1" source="hxMTRhEPYF77uvNA8j2I-28" target="hxMTRhEPYF77uvNA8j2I-26">
          <mxGeometry relative="1" as="geometry" />
        </mxCell>
        <mxCell id="hxMTRhEPYF77uvNA8j2I-28" value="Menyimpan Data" style="rounded=1;whiteSpace=wrap;html=1;shadow=0;" vertex="1" parent="1">
          <mxGeometry x="322.5" y="1550" width="130" height="40" as="geometry" />
        </mxCell>
        <mxCell id="hxMTRhEPYF77uvNA8j2I-34" style="edgeStyle=orthogonalEdgeStyle;rounded=0;orthogonalLoop=1;jettySize=auto;html=1;shadow=0;" edge="1" parent="1" source="hxMTRhEPYF77uvNA8j2I-31" target="hxMTRhEPYF77uvNA8j2I-33">
          <mxGeometry relative="1" as="geometry" />
        </mxCell>
        <mxCell id="hxMTRhEPYF77uvNA8j2I-31" value="Data Berhasil Disimpan" style="rounded=1;whiteSpace=wrap;html=1;shadow=0;" vertex="1" parent="1">
          <mxGeometry x="580" y="1650" width="130" height="40" as="geometry" />
        </mxCell>
        <mxCell id="hxMTRhEPYF77uvNA8j2I-33" value="" style="ellipse;html=1;shape=endState;fillColor=strokeColor;shadow=0;" vertex="1" parent="1">
          <mxGeometry x="630" y="1730" width="30" height="30" as="geometry" />
        </mxCell>
        <mxCell id="hxMTRhEPYF77uvNA8j2I-35" value="Tidak" style="text;html=1;strokeColor=none;fillColor=none;align=center;verticalAlign=middle;whiteSpace=wrap;rounded=0;shadow=0;" vertex="1" parent="1">
          <mxGeometry x="287.5" y="1670" width="60" height="30" as="geometry" />
        </mxCell>
        <mxCell id="hxMTRhEPYF77uvNA8j2I-36" value="Ya" style="text;html=1;strokeColor=none;fillColor=none;align=center;verticalAlign=middle;whiteSpace=wrap;rounded=0;shadow=0;" vertex="1" parent="1">
          <mxGeometry x="460" y="1670" width="60" height="30" as="geometry" />
        </mxCell>
        <mxCell id="hxMTRhEPYF77uvNA8j2I-37" value="" style="ellipse;html=1;shape=endState;fillColor=strokeColor;" vertex="1" parent="1">
          <mxGeometry x="380" y="1000" width="30" height="30" as="geometry" />
        </mxCell>
        <mxCell id="hxMTRhEPYF77uvNA8j2I-39" value="" style="shape=table;startSize=0;container=1;collapsible=0;childLayout=tableLayout;" vertex="1" parent="1">
          <mxGeometry x="110" y="1900" width="605" height="970.5" as="geometry" />
        </mxCell>
        <mxCell id="hxMTRhEPYF77uvNA8j2I-40" value="" style="shape=tableRow;horizontal=0;startSize=0;swimlaneHead=0;swimlaneBody=0;strokeColor=inherit;top=0;left=0;bottom=0;right=0;collapsible=0;dropTarget=0;fillColor=none;points=[[0,0.5],[1,0.5]];portConstraint=eastwest;" vertex="1" parent="hxMTRhEPYF77uvNA8j2I-39">
          <mxGeometry width="605" height="61" as="geometry" />
        </mxCell>
        <mxCell id="hxMTRhEPYF77uvNA8j2I-41" value="Admin" style="shape=partialRectangle;html=1;whiteSpace=wrap;connectable=0;strokeColor=inherit;overflow=hidden;fillColor=none;top=0;left=0;bottom=0;right=0;pointerEvents=1;" vertex="1" parent="hxMTRhEPYF77uvNA8j2I-40">
          <mxGeometry width="308" height="61" as="geometry">
            <mxRectangle width="308" height="61" as="alternateBounds" />
          </mxGeometry>
        </mxCell>
        <mxCell id="hxMTRhEPYF77uvNA8j2I-42" value="Sistem" style="shape=partialRectangle;html=1;whiteSpace=wrap;connectable=0;strokeColor=inherit;overflow=hidden;fillColor=none;top=0;left=0;bottom=0;right=0;pointerEvents=1;" vertex="1" parent="hxMTRhEPYF77uvNA8j2I-40">
          <mxGeometry x="308" width="297" height="61" as="geometry">
            <mxRectangle width="297" height="61" as="alternateBounds" />
          </mxGeometry>
        </mxCell>
        <mxCell id="hxMTRhEPYF77uvNA8j2I-43" value="" style="shape=tableRow;horizontal=0;startSize=0;swimlaneHead=0;swimlaneBody=0;strokeColor=inherit;top=0;left=0;bottom=0;right=0;collapsible=0;dropTarget=0;fillColor=none;points=[[0,0.5],[1,0.5]];portConstraint=eastwest;" vertex="1" parent="hxMTRhEPYF77uvNA8j2I-39">
          <mxGeometry y="61" width="605" height="910" as="geometry" />
        </mxCell>
        <mxCell id="hxMTRhEPYF77uvNA8j2I-44" value="" style="shape=partialRectangle;html=1;whiteSpace=wrap;connectable=0;strokeColor=inherit;overflow=hidden;fillColor=none;top=0;left=0;bottom=0;right=0;pointerEvents=1;" vertex="1" parent="hxMTRhEPYF77uvNA8j2I-43">
          <mxGeometry width="308" height="910" as="geometry">
            <mxRectangle width="308" height="910" as="alternateBounds" />
          </mxGeometry>
        </mxCell>
        <mxCell id="hxMTRhEPYF77uvNA8j2I-45" value="" style="shape=partialRectangle;html=1;whiteSpace=wrap;connectable=0;strokeColor=inherit;overflow=hidden;fillColor=none;top=0;left=0;bottom=0;right=0;pointerEvents=1;" vertex="1" parent="hxMTRhEPYF77uvNA8j2I-43">
          <mxGeometry x="308" width="297" height="910" as="geometry">
            <mxRectangle width="297" height="910" as="alternateBounds" />
          </mxGeometry>
        </mxCell>
        <mxCell id="hxMTRhEPYF77uvNA8j2I-48" style="edgeStyle=orthogonalEdgeStyle;rounded=0;sketch=0;orthogonalLoop=1;jettySize=auto;html=1;exitX=1;exitY=0.5;exitDx=0;exitDy=0;entryX=0.667;entryY=0.5;entryDx=0;entryDy=0;entryPerimeter=0;shadow=0;" edge="1" parent="1" source="hxMTRhEPYF77uvNA8j2I-9" target="hxMTRhEPYF77uvNA8j2I-9">
          <mxGeometry relative="1" as="geometry" />
        </mxCell>
        <mxCell id="hxMTRhEPYF77uvNA8j2I-51" style="edgeStyle=orthogonalEdgeStyle;rounded=0;sketch=0;orthogonalLoop=1;jettySize=auto;html=1;shadow=0;" edge="1" parent="1" source="hxMTRhEPYF77uvNA8j2I-49" target="hxMTRhEPYF77uvNA8j2I-50">
          <mxGeometry relative="1" as="geometry" />
        </mxCell>
        <mxCell id="hxMTRhEPYF77uvNA8j2I-49" value="" style="ellipse;fillColor=strokeColor;shadow=0;" vertex="1" parent="1">
          <mxGeometry x="245" y="1980.5" width="30" height="30" as="geometry" />
        </mxCell>
        <mxCell id="hxMTRhEPYF77uvNA8j2I-53" style="edgeStyle=orthogonalEdgeStyle;rounded=0;sketch=0;orthogonalLoop=1;jettySize=auto;html=1;shadow=0;" edge="1" parent="1" source="hxMTRhEPYF77uvNA8j2I-50" target="hxMTRhEPYF77uvNA8j2I-52">
          <mxGeometry relative="1" as="geometry" />
        </mxCell>
        <mxCell id="hxMTRhEPYF77uvNA8j2I-50" value="Login Admin" style="rounded=1;whiteSpace=wrap;html=1;shadow=0;" vertex="1" parent="1">
          <mxGeometry x="195" y="2050.5" width="130" height="40" as="geometry" />
        </mxCell>
        <mxCell id="hxMTRhEPYF77uvNA8j2I-55" style="edgeStyle=orthogonalEdgeStyle;rounded=0;sketch=0;orthogonalLoop=1;jettySize=auto;html=1;entryX=1;entryY=0.5;entryDx=0;entryDy=0;shadow=0;" edge="1" parent="1" source="hxMTRhEPYF77uvNA8j2I-52" target="hxMTRhEPYF77uvNA8j2I-54">
          <mxGeometry relative="1" as="geometry">
            <Array as="points">
              <mxPoint x="550" y="2140.5" />
            </Array>
          </mxGeometry>
        </mxCell>
        <mxCell id="hxMTRhEPYF77uvNA8j2I-52" value="Tampil Halaman Admin" style="rounded=1;whiteSpace=wrap;html=1;shadow=0;" vertex="1" parent="1">
          <mxGeometry x="485" y="2050.5" width="130" height="40" as="geometry" />
        </mxCell>
        <mxCell id="hxMTRhEPYF77uvNA8j2I-59" style="edgeStyle=orthogonalEdgeStyle;rounded=0;sketch=0;orthogonalLoop=1;jettySize=auto;html=1;entryX=0.5;entryY=0;entryDx=0;entryDy=0;shadow=0;" edge="1" parent="1" source="hxMTRhEPYF77uvNA8j2I-54">
          <mxGeometry relative="1" as="geometry">
            <mxPoint x="260" y="2190.5" as="targetPoint" />
          </mxGeometry>
        </mxCell>
        <mxCell id="hxMTRhEPYF77uvNA8j2I-54" value="Pilih Marketing" style="rounded=1;whiteSpace=wrap;html=1;shadow=0;" vertex="1" parent="1">
          <mxGeometry x="195" y="2120.5" width="130" height="40" as="geometry" />
        </mxCell>
        <mxCell id="hxMTRhEPYF77uvNA8j2I-58" style="edgeStyle=orthogonalEdgeStyle;rounded=0;sketch=0;orthogonalLoop=1;jettySize=auto;html=1;shadow=0;entryX=0.5;entryY=0;entryDx=0;entryDy=0;" edge="1" parent="1" source="hxMTRhEPYF77uvNA8j2I-62" target="hxMTRhEPYF77uvNA8j2I-60">
          <mxGeometry relative="1" as="geometry">
            <mxPoint x="325" y="2210.5" as="sourcePoint" />
            <Array as="points" />
          </mxGeometry>
        </mxCell>
        <mxCell id="hxMTRhEPYF77uvNA8j2I-57" value="Menampilkan data yang akan diprint" style="rounded=1;whiteSpace=wrap;html=1;shadow=0;" vertex="1" parent="1">
          <mxGeometry x="485" y="2360.5" width="130" height="40" as="geometry" />
        </mxCell>
        <mxCell id="hxMTRhEPYF77uvNA8j2I-69" style="edgeStyle=orthogonalEdgeStyle;rounded=0;sketch=0;orthogonalLoop=1;jettySize=auto;html=1;shadow=0;" edge="1" parent="1" source="hxMTRhEPYF77uvNA8j2I-70" target="hxMTRhEPYF77uvNA8j2I-57">
          <mxGeometry relative="1" as="geometry">
            <Array as="points">
              <mxPoint x="550" y="2380.5" />
            </Array>
          </mxGeometry>
        </mxCell>
        <mxCell id="hxMTRhEPYF77uvNA8j2I-71" style="edgeStyle=orthogonalEdgeStyle;rounded=0;sketch=0;orthogonalLoop=1;jettySize=auto;html=1;shadow=0;" edge="1" parent="1" source="hxMTRhEPYF77uvNA8j2I-60" target="hxMTRhEPYF77uvNA8j2I-70">
          <mxGeometry relative="1" as="geometry" />
        </mxCell>
        <mxCell id="hxMTRhEPYF77uvNA8j2I-60" value="Biodata marketing" style="rounded=1;whiteSpace=wrap;html=1;shadow=0;" vertex="1" parent="1">
          <mxGeometry x="195" y="2290.5" width="130" height="40" as="geometry" />
        </mxCell>
        <mxCell id="hxMTRhEPYF77uvNA8j2I-74" style="edgeStyle=orthogonalEdgeStyle;rounded=0;sketch=0;orthogonalLoop=1;jettySize=auto;html=1;entryX=0;entryY=0.5;entryDx=0;entryDy=0;shadow=0;" edge="1" parent="1" source="hxMTRhEPYF77uvNA8j2I-62" target="hxMTRhEPYF77uvNA8j2I-72">
          <mxGeometry relative="1" as="geometry">
            <Array as="points">
              <mxPoint x="165" y="2230.5" />
              <mxPoint x="165" y="2450.5" />
            </Array>
          </mxGeometry>
        </mxCell>
        <mxCell id="hxMTRhEPYF77uvNA8j2I-62" value="Detail" style="rhombus;whiteSpace=wrap;html=1;shadow=0;" vertex="1" parent="1">
          <mxGeometry x="220" y="2190.5" width="80" height="80" as="geometry" />
        </mxCell>
        <mxCell id="hxMTRhEPYF77uvNA8j2I-77" style="edgeStyle=orthogonalEdgeStyle;rounded=0;sketch=0;orthogonalLoop=1;jettySize=auto;html=1;entryX=1;entryY=0.5;entryDx=0;entryDy=0;shadow=0;" edge="1" parent="1" source="hxMTRhEPYF77uvNA8j2I-64" target="hxMTRhEPYF77uvNA8j2I-76">
          <mxGeometry relative="1" as="geometry">
            <Array as="points">
              <mxPoint x="545" y="2510.5" />
            </Array>
          </mxGeometry>
        </mxCell>
        <mxCell id="hxMTRhEPYF77uvNA8j2I-64" value="Menampilkan Data" style="rounded=1;whiteSpace=wrap;html=1;shadow=0;" vertex="1" parent="1">
          <mxGeometry x="485" y="2430.5" width="130" height="40" as="geometry" />
        </mxCell>
        <mxCell id="hxMTRhEPYF77uvNA8j2I-85" style="edgeStyle=orthogonalEdgeStyle;rounded=0;sketch=0;orthogonalLoop=1;jettySize=auto;html=1;shadow=0;" edge="1" parent="1" source="hxMTRhEPYF77uvNA8j2I-65">
          <mxGeometry relative="1" as="geometry">
            <mxPoint x="615" y="2450.5" as="targetPoint" />
            <Array as="points">
              <mxPoint x="655" y="2680.5" />
              <mxPoint x="655" y="2450.5" />
            </Array>
          </mxGeometry>
        </mxCell>
        <mxCell id="hxMTRhEPYF77uvNA8j2I-87" style="edgeStyle=orthogonalEdgeStyle;rounded=0;sketch=0;orthogonalLoop=1;jettySize=auto;html=1;shadow=0;" edge="1" parent="1" source="hxMTRhEPYF77uvNA8j2I-65" target="hxMTRhEPYF77uvNA8j2I-67">
          <mxGeometry relative="1" as="geometry" />
        </mxCell>
        <mxCell id="hxMTRhEPYF77uvNA8j2I-65" value="" style="rhombus;whiteSpace=wrap;html=1;shadow=0;" vertex="1" parent="1">
          <mxGeometry x="510" y="2640.5" width="80" height="80" as="geometry" />
        </mxCell>
        <mxCell id="hxMTRhEPYF77uvNA8j2I-89" style="edgeStyle=orthogonalEdgeStyle;rounded=0;sketch=0;orthogonalLoop=1;jettySize=auto;html=1;entryX=0.5;entryY=0;entryDx=0;entryDy=0;shadow=0;" edge="1" parent="1" source="hxMTRhEPYF77uvNA8j2I-67" target="hxMTRhEPYF77uvNA8j2I-88">
          <mxGeometry relative="1" as="geometry" />
        </mxCell>
        <mxCell id="hxMTRhEPYF77uvNA8j2I-67" value="Berhasil Diubah" style="rounded=1;whiteSpace=wrap;html=1;shadow=0;" vertex="1" parent="1">
          <mxGeometry x="485" y="2740.5" width="130" height="40" as="geometry" />
        </mxCell>
        <mxCell id="hxMTRhEPYF77uvNA8j2I-70" value="print" style="rounded=1;whiteSpace=wrap;html=1;shadow=0;" vertex="1" parent="1">
          <mxGeometry x="195" y="2360.5" width="130" height="40" as="geometry" />
        </mxCell>
        <mxCell id="hxMTRhEPYF77uvNA8j2I-75" style="edgeStyle=orthogonalEdgeStyle;rounded=0;sketch=0;orthogonalLoop=1;jettySize=auto;html=1;shadow=0;" edge="1" parent="1" source="hxMTRhEPYF77uvNA8j2I-72" target="hxMTRhEPYF77uvNA8j2I-64">
          <mxGeometry relative="1" as="geometry" />
        </mxCell>
        <mxCell id="hxMTRhEPYF77uvNA8j2I-72" value="Catatan Progres" style="rounded=1;whiteSpace=wrap;html=1;shadow=0;" vertex="1" parent="1">
          <mxGeometry x="195" y="2430.5" width="130" height="40" as="geometry" />
        </mxCell>
        <mxCell id="hxMTRhEPYF77uvNA8j2I-80" style="edgeStyle=orthogonalEdgeStyle;rounded=0;sketch=0;orthogonalLoop=1;jettySize=auto;html=1;entryX=0;entryY=0.5;entryDx=0;entryDy=0;shadow=0;" edge="1" parent="1" source="hxMTRhEPYF77uvNA8j2I-76" target="hxMTRhEPYF77uvNA8j2I-78">
          <mxGeometry relative="1" as="geometry">
            <Array as="points">
              <mxPoint x="260" y="2560.5" />
            </Array>
          </mxGeometry>
        </mxCell>
        <mxCell id="hxMTRhEPYF77uvNA8j2I-76" value="Edit" style="rounded=1;whiteSpace=wrap;html=1;shadow=0;" vertex="1" parent="1">
          <mxGeometry x="195" y="2490.5" width="130" height="40" as="geometry" />
        </mxCell>
        <mxCell id="hxMTRhEPYF77uvNA8j2I-82" style="edgeStyle=orthogonalEdgeStyle;rounded=0;sketch=0;orthogonalLoop=1;jettySize=auto;html=1;entryX=1;entryY=0.5;entryDx=0;entryDy=0;shadow=0;" edge="1" parent="1" source="hxMTRhEPYF77uvNA8j2I-78" target="hxMTRhEPYF77uvNA8j2I-81">
          <mxGeometry relative="1" as="geometry">
            <Array as="points">
              <mxPoint x="550" y="2620.5" />
            </Array>
          </mxGeometry>
        </mxCell>
        <mxCell id="hxMTRhEPYF77uvNA8j2I-78" value="Menampilkan Form Edit" style="rounded=1;whiteSpace=wrap;html=1;shadow=0;" vertex="1" parent="1">
          <mxGeometry x="485" y="2540.5" width="130" height="40" as="geometry" />
        </mxCell>
        <mxCell id="hxMTRhEPYF77uvNA8j2I-84" style="edgeStyle=orthogonalEdgeStyle;rounded=0;sketch=0;orthogonalLoop=1;jettySize=auto;html=1;shadow=0;" edge="1" parent="1" source="hxMTRhEPYF77uvNA8j2I-81" target="hxMTRhEPYF77uvNA8j2I-65">
          <mxGeometry relative="1" as="geometry">
            <Array as="points">
              <mxPoint x="265" y="2680.5" />
            </Array>
          </mxGeometry>
        </mxCell>
        <mxCell id="hxMTRhEPYF77uvNA8j2I-81" value="Simpan" style="rounded=1;whiteSpace=wrap;html=1;shadow=0;" vertex="1" parent="1">
          <mxGeometry x="200" y="2600.5" width="130" height="40" as="geometry" />
        </mxCell>
        <mxCell id="hxMTRhEPYF77uvNA8j2I-86" style="edgeStyle=orthogonalEdgeStyle;rounded=0;sketch=0;orthogonalLoop=1;jettySize=auto;html=1;exitX=0.5;exitY=1;exitDx=0;exitDy=0;shadow=0;" edge="1" parent="1" source="hxMTRhEPYF77uvNA8j2I-67" target="hxMTRhEPYF77uvNA8j2I-67">
          <mxGeometry relative="1" as="geometry" />
        </mxCell>
        <mxCell id="hxMTRhEPYF77uvNA8j2I-88" value="" style="ellipse;html=1;shape=endState;fillColor=strokeColor;shadow=0;" vertex="1" parent="1">
          <mxGeometry x="535" y="2820.5" width="30" height="30" as="geometry" />
        </mxCell>
      </root>
    </mxGraphModel>
  </diagram>
</mxfile>
